<?xml version="1.0" encoding="utf-8"?>
<!-- Generator: Adobe Illustrator 23.0.4, SVG Export Plug-In . SVG Version: 6.00 Build 0)  -->
<svg 
version="1.1" 
xmlns="http://www.w3.org/2000/svg" 
xmlns:xlink="http://www.w3.org/1999/xlink" 
x="0px" 
y="0px"
viewBox="0 0 1123.5 681" 
style="enable-background:new 0 0 1123.5 681;" 
xml:space="preserve">

<g id="Livello_2">
	<path 
	fill="#C7C6C6"
	class="st0" 
	d="M1118.5,452h-232V5c0-2.8-2.2-5-5-5h-355c-2.8,0-5,2.2-5,5v5c0,2.8,2.2,5,5,5h345v447c0,2.8,2.2,5,5,5h232
		v181.5c-0.3,10.2-3.8,17-38.5,17H788.5v-356c0-2.8-2.2-5-5-5H510c-2.8,0-5,2.2-5,5v0v5v84c0,0.3,0,0.7,0.1,1
		c-0.1,0.3-0.1,0.7-0.1,1v5c0,2.8,2.2,5,5,5h53v85H134v-201c0-2.8-2.2-5-5-5H5c-2.8,0-5,2.2-5,5v5c0,2.8,2.2,5,5,5h114v201
		c0,2.8,2.2,5,5,5h5h439h5h0c2.8,0,5-2.2,5-5v-105c0-2.8-2.2-5-5-5h-53v-76h253.5V676c0,2.8,2.2,5,5,5h5c0.8,0,1.5-0.2,2.2-0.5H1071
		c0.1,0,0.2,0,0.3,0c0,0,0,0,0,0c29.7,0,50.8,1.1,52.1-34.1c0-0.2,0.1-0.4,0.1-0.6V457C1123.5,454.2,1121.3,452,1118.5,452z"/>
</g>
</svg>
