<?xml version="1.0" encoding="utf-8"?>
<!-- Generator: Adobe Illustrator 23.0.4, SVG Export Plug-In . SVG Version: 6.00 Build 0)  -->
<svg 
version="1.1" 
id="Livello_1" 
xmlns="http://www.w3.org/2000/svg" 
xmlns:xlink="http://www.w3.org/1999/xlink" 
x="0px" 
y="0px"
viewBox="0 0 94.9 122.1" 
style="enable-background:new 0 0 94.9 122.1;" 
xml:space="preserve">


<style type="text/css">
	.st2{clip-path:url(#SVGID_2_);}
</style>
<g>
	<path class="st0" fill="#E8465B" d="M94.9,47.4c0,38-42.9,73.2-42.9,73.2c-2.5,2.1-6.6,2.1-9.1,0c0,0-42.9-35.2-42.9-73.2C0,21.2,21.2,0,47.4,0
		S94.9,21.2,94.9,47.4z"/>
	<g>
		<path class="st1" fill="#FBDFD6" d="M47.4,81.4c-19.4,0-35.2-15.8-35.2-35.2S28,11,47.4,11s35.2,15.8,35.2,35.2S66.8,81.4,47.4,81.4z"/>
		<g>
			<defs>
				<path id="SVGID_1_" d="M47.4,81.4c-19.4,0-35.2-15.8-35.2-35.2S28,11,47.4,11s35.2,15.8,35.2,35.2S66.8,81.4,47.4,81.4z"/>
			</defs>
			<clipPath id="SVGID_2_">
				<use xlink:href="#SVGID_1_"  style="overflow:visible;"/>
			</clipPath>
			<g class="st2">
				<g>
					<path class="st3" fill="#C51F3A" d="M53.4,86.2c0.2-4.4-1-8.8-2.7-12.9c-1.7-4.1-4-7.9-6.3-11.7l-15.9-3c-4.2,1.8-8.1,4.2-11.5,7.2
						c2.7,6.3,4.8,14.1,8.8,19.1c0.7,0.9,1.8,1.5,2.9,1.7c7.6,1.3,13.7,2.6,21.7,2.4c1.2,0,2.3-0.7,2.8-1.9
						C53.3,86.8,53.4,86.6,53.4,86.2z"/>
				</g>
				<g>
					<path class="st4" fill="#F5C080" d="M50.5,53.8l-24.8-5.1l7.6-14.2c2.6-4.8,8-7.4,13.4-6.3l0,0c4.8,1,7.9,5.7,6.9,10.5L50.5,53.8z"/>
					<g>
						<g>
							<path class="st5" fill="#FFFFFF" d="M70.3,72.2c0.9-0.3,1.8-0.6,2.6-1.2c0.8-0.6,1.4-1.5,1.5-2.6c0.1-1.9-1.6-3.7-3.4-4.1
								c-3.1-0.6-5.8-1.1-9.1-1.8c0.8-0.1,1.5-0.2,2.2-0.7c0.1-0.1,0.3-0.3,0.4-0.5c0.8-2.3-0.6-4.7-3-5.2
								c-2.7-0.6-6.9-1.6-13.1-2.9c0.9-4.8,1-5.5,1.6-8.2c-0.5-0.2-1-0.3-1.6-0.3c-0.2,1.6-2.9,4.2-6.4,3.6c-4.3-0.7-8.6-2-12.7-4
								c-1.1-0.5-2.2-0.8-3.4-0.7c-3.1,0.4-6.1,2.8-7.1,6.1C18.6,50.8,18.5,52,19,53c0.5,0.9,1.8,1.4,2.6,0.7c-1.6,3.1-1.4,6.9,0,10
								c1.4,3,3.8,6,6.9,6.6c4.7,1,23.9,4.9,32.1,6.6c4.5,0.9,7.6,0,9.5-0.5c0.7-0.2,1.4-0.5,2-1.1c0.5-0.5,0.8-1.4,0.4-2.1
								C72.2,72.4,71.2,72.3,70.3,72.2z"/>
						</g>
						<g>
							<g>
								<path class="st6" fill="#DBEFFA" d="M64.6,61c-0.6,0.5-3.1,0.6-4.1,0.4c-1-0.3-1.2,1,1.5,1.1c1.2-0.1,1.6-0.3,2.2-0.7
									C64.4,61.7,64.5,61.4,64.6,61C64.6,61.1,64.6,61,64.6,61z"/>
							</g>
							<g>
								<path class="st6" fill="#982C19" d="M69.2,71.1c-1.2-0.1-0.7,1.1,1.1,1.1c1.2-0.3,1.9-0.7,2.6-1.2c0.5-0.3,0.8-0.8,1.1-1.3
									C73.9,69.9,71.9,71.1,69.2,71.1z"/>
							</g>
							<g>
								<path class="st6" fill="#982C19" d="M70.8,75.6c-2,0.6-4-3.3-8.6-4.3c-8.2-1.7-27.5-5.6-32.1-6.6c-3.1-0.6-6.4,1.2-7.9-1.8
									c-1.4-2.9-1.6-6.4-0.3-9.4c0.1-0.2-0.1-0.3-0.2-0.3c-0.8,0.2-1.7-0.3-2.1-1c-0.5-0.9-0.4-2.1-0.1-3.2c0.2-0.8,0.6-1.5,1-2.1
									c-0.7,0.9-1.3,1.9-1.6,3C18.6,50.8,18.5,52,19,53c0.5,0.9,1.8,1.4,2.6,0.7c-1.6,3.1-1.4,6.9,0,10c1.4,3,3.8,6,6.9,6.6
									c4.7,1,23.9,4.9,32.1,6.6c4.5,0.9,7.6,0,9.5-0.5c0.7-0.2,1.4-0.5,2-1.1c0.2-0.2,0.3-0.4,0.4-0.6
									C72,75.1,71.4,75.4,70.8,75.6z"/>
							</g>
						</g>
					</g>
					<g>
						
						<ellipse transform="matrix(0.4917 -0.8708 0.8708 0.4917 6.0513 86.0246)" class="st5" fill="#FFFFFF" cx="76.7" cy="37.8" rx="2.5" ry="2.8"/>
						<path class="st6" fill="#982C19" d="M74.4,37.5c-0.3,0.1-0.4,0.4-0.3,0.7c0.2,0.7,0.7,1.4,1.4,1.8c1,0.6,2.2,0.5,3.1-0.1
							c0.3-0.2,0.2-0.7-0.1-0.8c-0.6-0.2-1.7-0.1-2.3-0.4C75.1,38.2,74.9,37.3,74.4,37.5z"/>
					</g>
					<g>
						<g>
							<g>
								<path class="st0" fill="#E8465B" d="M56.6,40.9c0.8-1,1.9-1.7,2.9-2.3c4.7-2.6,11.4-3.1,16.1-1.2c0.3,0.1,0.5,0,0.6-0.3l0,0
									c0-0.1,0-0.2-0.1-0.3c-1.5-2.2-3.3-4-5.4-5.2c-0.8-0.5-1.5-0.9-2.3-1.2c-5.5-2.6-11.5-3.9-17.6-3.9L56.6,40.9z"/>
							</g>
						</g>
						<g>
							<g>
								<path class="st3" fill="#C51F3A" d="M54.4,35.4l2.2,5.5c0.8-1,1.9-1.7,2.9-2.3c4.7-2.6,11.4-3.1,16.1-1.2c0.1,0.1,0.3,0,0.4,0
									C69.8,33.7,61.4,34,54.4,35.4z"/>
							</g>
						</g>
					</g>
					<g>
						<g>
							<path class="st5" fill="#FFFFFF" d="M49.4,25.5c0.3-0.1,0.5-0.1,0.8,0.1c1.7,0.9,7.3,5.2,8.1,15c0,0.1,0,0.2-0.1,0.2c0,0.1-0.1,0.1-0.2,0.1
								c-0.8,0.3-2.3,0.8-3.3,1.1c-0.2,0.1-0.5,0-0.6-0.3c-3-7.7-7.6-12.1-10.3-13.2c-0.4-0.2-0.4-0.9,0.1-1L49.4,25.5z"/>
						</g>
						<g>
							<path class="st6" fill="#982C19" d="M44.8,27.1l-0.9,0.3c-0.4,0.2-0.5,0.8-0.1,1c2.7,1.1,7.3,5.5,10.3,13.2c0.1,0.3,0.3,0.4,0.6,0.3
								c0.3-0.1,0.7-0.2,1.1-0.4C52.6,33.5,47.9,28.7,44.8,27.1z"/>
						</g>
					</g>
					<g>
						<g>
							<path class="st5" fill="#FFFFFF" d="M47.9,31.5c-8.1,1.1-10.2-2.3-10.6-2.8c-0.3-0.5-0.5-1.1-0.3-1.6c0.3-0.5,1.2-0.6,1.3,0
								c-0.4-1.5,0-3.1,0.8-4.4c0.7-1,1.8-1.7,2.9-2c0.4-0.1,0.8,0.3,0.7,0.7c-0.2,0.8-0.3,1.5-0.4,2.3c1.3-1.4,3.4-2.1,5.3-1.8
								c0.4,0.1,0.9,0.2,1.1,0.6c0.2,0.3,0.1,0.7,0,1.1c-0.3,0.8-0.9,1.5-1.5,2.1c-1.5,1.6-1.8,3.8-1.1,4.3
								C46.9,30.5,47.9,31.5,47.9,31.5z"/>
						</g>
						<g>
							<path class="st6" fill="#982C19" d="M44.2,25.7c0.2-0.4-0.2-0.9-0.6-0.8c0,0,0,0,0,0c-1.1,0.2-1.2,1.5-1.9,1.8c-1.2,0.5-0.5-1.5-1.5-1.4
								c-0.9,0.2-0.2,2.3-1.3,3c-0.5,0.3-1.1-1.1-1.6-0.6c-0.1,0.1-0.1,0.3-0.2,0.5c0,0.1,0,0.3,0.1,0.4c0,0,0,0,0,0
								c0.3,0.5,2.1,3.5,8.8,3C43.8,30.8,43.4,27.9,44.2,25.7z"/>
						</g>
					</g>
					<g>
						<g>
							<path class="st5" fill="#FFFFFF" d="M58.8,46.7c-0.1-0.2-1.8-1.6-1.8-1.6c1.1,0.1,1.9-0.6,2-0.7c0.3-0.4,0.3-1.1-0.2-1.4
								c-0.3-0.2-0.7-0.2-1-0.4c-1-0.4-3.9-1.5-4.4-2.7c0,0-1-2.8-3-5.4c-1.9,4.4,0.8,12.9,0.8,12.9c0.6,2.8,1.5,3.7,3.4,4.2
								c0.3,0.1,0.6,0.1,0.9,0c0.4-0.2,0.7-0.6,0.8-1c0.1-0.4,0.1-0.8-0.1-1.2c-0.2-0.5-0.5-1-0.8-1.4c0.8,0.3,1.7,0.4,2.6,0.1
								c0.3-0.1,0.6-0.3,0.8-0.5C59,47.4,59,47,58.8,46.7z"/>
						</g>
						<g>
							<path class="st6" fill="#982C19" d="M54.3,50.8c-0.6-0.5-1-1.3-0.9-2.1c0.1-1,0.9-1.2,2.2-1.8c0.6-0.2,0.2-0.7-0.4-1.2
								c-4.9-1.8-5.7-8.2-4.5-11.9c-2.6,4.2,0.5,13.6,0.5,13.6c0.6,2.8,1.5,3.7,3.4,4.2c0.3,0.1,0.6,0.1,0.9,0
								c0.1,0,0.3-0.1,0.3-0.2C55.6,51,54.8,51.2,54.3,50.8z"/>
						</g>
					</g>
					<g>
						<g>
							<path class="st7" d="M34.1,58.1c1.7,1,7.7,0.9,8.5-5.7c0.1-0.8-0.1-1.6-0.6-2.2c-0.7-0.7-1.8-0.9-2.8-0.6
								c-0.9,0.3-3.1,1.6-6.5,1.5c-0.6,0-1.4,0.1-1.9,0.8c-0.3,0.5-0.3,1.1-0.2,1.6C31,55.7,32.7,57.4,34.1,58.1z"/>
						</g>
						<g>
							<path class="st8" fill="#E2756B" d="M34.5,56c-0.5,0.5-0.9,1-1.2,1.6c0.2,0.2,0.5,0.4,0.7,0.5c1.4,0.8,6.1,0.9,7.9-3.3
								c-1-0.7-2.1-0.9-3.2-0.8C37.1,54.2,35.6,54.9,34.5,56z"/>
						</g>
						<path class="st5" fill="#FFFFFF" d="M34.5,52L34.5,52c-0.4,0-0.8-0.3-0.9-0.7l-0.1-0.6c0-0.4,0.3-0.8,0.7-0.9l0,0c0.4,0,0.8,0.3,0.9,0.7
							l0.1,0.6C35.3,51.5,35,51.9,34.5,52z"/>
						<path class="st5" fill="#FFFFFF" d="M36.5,51.8L36.5,51.8c-0.4,0-0.8-0.3-0.9-0.7l-0.1-0.6c0-0.4,0.3-0.8,0.7-0.9l0,0c0.4,0,0.8,0.3,0.9,0.7
							l0.1,0.6C37.3,51.3,36.9,51.7,36.5,51.8z"/>
					</g>
					<g>
						<g>
							<g>
								<path class="st9" fill="#202642" d="M45.9,40.5c0-0.2-0.1-0.3-0.2-0.4c-0.5-0.1-1.1-0.3-1.6-0.4L39,42.5c0.4,0.8,1.1,1.5,2.3,1.8
									C44,45.1,45.7,42.1,45.9,40.5z"/>
							</g>
							<g>
								<path class="st10" fill="#353F61" d="M39.5,38.6c-0.2,0-0.3,0-0.4,0.2c-0.5,1-0.7,2.5-0.1,3.7l5.1-2.7C42.6,39.3,41.1,39,39.5,38.6z"/>
							</g>
							<path d="M45.7,40.1c-1.6-0.5-3.3-0.9-4.9-1.3c-1-0.2-1.6-0.6-2,0.4c-0.5,1.5-0.4,3.3,0.9,4.3c1.3,1.2,3.3,1.3,4.7,0.1
								C44.9,43.2,46.9,40.6,45.7,40.1c-0.1-0.1-0.2,0.1-0.1,0.2c0.4,0.4-0.2,1.4-0.4,1.8c-0.3,0.6-0.8,1.2-1.4,1.6
								c-1.4,1-3.5,0.6-4.5-0.9c-0.4-0.6-0.6-1.2-0.6-1.9c0-0.4,0-1.5,0.4-1.8c0.6-0.6,2.8,0.3,3.4,0.5c1,0.2,2,0.5,3,0.8
								C45.8,40.3,45.8,40.1,45.7,40.1z"/>
							<path d="M45.8,40.8c1.5,1,3.4,1.9,5.1,2.6c0.2,0.1,0.3-0.2,0.1-0.3C49.4,42.3,47.6,41.4,45.8,40.8
								C45.8,40.8,45.8,40.8,45.8,40.8L45.8,40.8z"/>
							<path d="M46.1,41.4l-0.4-0.1l0.2-0.8l0.4,0.1c0.2,0,0.4,0.3,0.3,0.5l0,0C46.6,41.3,46.4,41.5,46.1,41.4z"/>
						</g>
						<g>
							<g>
								<path class="st9" fill="#202642" d="M36.3,37.8c0-0.2-0.1-0.3-0.2-0.4c-0.5-0.1-1.1-0.3-1.6-0.4l-5.1,2.7c0.4,0.8,1.1,1.5,2.3,1.8
									C34.3,42.3,36,39.4,36.3,37.8z"/>
							</g>
							<g>
								<path class="st10" fill="#353F61" d="M29.9,35.9c-0.2,0-0.3,0-0.4,0.2c-0.5,1-0.7,2.5-0.1,3.7l5.1-2.7C32.9,36.6,31.5,36.3,29.9,35.9z"/>
							</g>
							<path d="M36,37.3c-1.6-0.5-3.3-0.9-4.9-1.3c-1-0.2-1.6-0.6-2,0.4c-0.5,1.5-0.4,3.3,0.9,4.3c1.3,1.2,3.3,1.3,4.7,0.1
								C35.2,40.5,37.3,37.9,36,37.3c-0.1-0.1-0.2,0.1-0.1,0.2c0.4,0.4-0.2,1.4-0.4,1.8c-0.3,0.6-0.8,1.2-1.4,1.6
								c-1.4,1-3.5,0.6-4.5-0.9c-0.4-0.6-0.6-1.2-0.6-1.9c0-0.4,0-1.5,0.4-1.8c0.6-0.6,2.8,0.3,3.4,0.5c1,0.2,2,0.5,3,0.8
								C36.1,37.5,36.2,37.4,36,37.3z"/>
							<path d="M38.8,39.5c0.3-0.7-0.7-1.3-1.2-1.4c-0.4-0.1-1.6-0.3-1.7,0.3c0,0.1,0,0.2,0.1,0.2c0.4,0.1,0.9-0.1,1.3,0
								c0.3,0.1,0.5,0.2,0.8,0.4c0.2,0.2,0.3,0.5,0.6,0.6C38.8,39.5,38.8,39.5,38.8,39.5L38.8,39.5z"/>
						</g>
					</g>
					<g>
						<path class="st4" fill="#F5C080" d="M52.7,47.7L49.6,47c-0.6-0.1-1-0.7-0.8-1.3l0.4-1.8c0.1-0.6,0.7-1,1.3-0.8l3.1,0.6c0.6,0.1,1,0.7,0.8,1.3
							l-0.4,1.8C53.8,47.4,53.2,47.8,52.7,47.7z"/>
						<g>
							<path class="st11" fill="#F09251" d="M49.9,45.7c0.1-0.2,0.2-0.4,0.4-0.5c0.3-0.4,0.4-0.4,0.8-0.4c0.7,0,1.4,0.2,2.1,0.3
								c0.1,0,0.1-0.1,0-0.1c-0.8-0.2-1.7-0.3-2.5-0.3C50.2,44.6,50.1,45.2,49.9,45.7C49.8,45.7,49.9,45.7,49.9,45.7L49.9,45.7z"/>
							<path class="st11" fill="#F09251" d="M50.8,45c0.2,0.1,0.4,0.2,0.6,0.4c0.2,0.1,0.4,0.3,0.7,0.4c0,0,0.1,0,0.1-0.1c-0.1-0.2-0.4-0.3-0.6-0.4
								C51.4,45.1,51.1,45,50.8,45C50.8,44.9,50.8,45,50.8,45L50.8,45z"/>
						</g>
					</g>
					<g>
						<g>
							<path class="st6" fill="#982C19" d="M30.5,46.2c-0.7,0.5-0.7,1.5-0.4,2.2c0.5,1.3,1.9,1.3,2.2,1.2c0.9-0.2,1.8-0.9,2.4-1.6
								c0.3-0.4,0.6-0.8,0.8-1.2c-1.3-0.3-2.4-0.8-3.5-1.3C31.5,45.6,30.9,45.8,30.5,46.2z"/>
						</g>
						<g>
							<path class="st11" fill="#F09251" d="M37,41.5c0-0.4,0-1-0.1-1.6c-0.9,1.6-1.8,3.1-3,4.3c-0.2,0.2-0.4,0.4-0.6,0.5c-0.3,0.3-0.7,0.6-1.1,0.8
								c1,0.4,2.1,0.9,3.2,1.1C36.4,45.2,36.7,43.3,37,41.5z"/>
						</g>
						<g>
							<path class="st8" fill="#E2756B" d="M36.1,39.9c-0.7,0.9-1.3,1.8-2.2,2.5c-0.8,0.7-1.9,1.3-3,1.3c-0.8,0-1.7-0.1-2.5,0.1
								c-0.9,0.2-1.3,1.2-1.4,2.1c-0.1,1.5,1.4,2.1,1.8,2.2c1.1,0.2,2.2-0.1,3.2-0.6c2.3-1.2,3.9-3.4,5.1-5.6c0.3-0.5,0.5-1.3,0.6-2
								c0.1-0.6-0.6-0.9-1-0.5C36.5,39.4,36.3,39.6,36.1,39.9z"/>
						</g>
						<g>
							<path class="st12" fill="#E15C54" d="M34.5,45.2c-0.9,0.8-2.6,1.3-3.8,1.3c-0.6,0-1.2-0.1-1.8,0.1c-0.2,0.1-0.5,0.2-0.6,0.3
								c-0.3,0.3-0.3,0.9,0.2,1c0.1,0.1,0.3,0.1,0.3,0.1c1.1,0.2,2.2-0.1,3.2-0.6c1.5-0.7,2.6-1.9,3.6-3.2
								C35.2,44.5,34.9,44.9,34.5,45.2z"/>
						</g>
					</g>
				</g>
			</g>
		</g>
	</g>
</g>
</svg>
